<svg xmlns="http://www.w3.org/2000/svg" version="1.1" xmlns:xlink="http://www.w3.org/1999/xlink" xmlns:svgjs="http://svgjs.dev/svgjs" width="1920" height="1080" preserveAspectRatio="none" viewBox="0 0 1920 1080"><g mask="url(&quot;#SvgjsMask1580&quot;)" fill="none"><rect width="1920" height="1080" x="0" y="0" fill="url(&quot;#SvgjsLinearGradient1581&quot;)"></rect><path d="M0 0L874.52 0L0 75.33z" fill="rgba(255, 255, 255, .1)"></path><path d="M0 75.33L874.52 0L1354.25 0L0 214.55z" fill="rgba(255, 255, 255, .075)"></path><path d="M0 214.55L1354.25 0L1481.57 0L0 474.87z" fill="rgba(255, 255, 255, .05)"></path><path d="M0 474.87L1481.57 0L1556.02 0L0 629.63z" fill="rgba(255, 255, 255, .025)"></path><path d="M1920 1080L1169.96 1080L1920 608.55z" fill="rgba(0, 0, 0, .1)"></path><path d="M1920 608.55L1169.96 1080L1008.85 1080L1920 477.74999999999994z" fill="rgba(0, 0, 0, .075)"></path><path d="M1920 477.75L1008.85 1080L939.65 1080L1920 284.09000000000003z" fill="rgba(0, 0, 0, .05)"></path><path d="M1920 284.09000000000003L939.65 1080L389.78 1080L1920 114.24000000000004z" fill="rgba(0, 0, 0, .025)"></path></g><defs><mask id="SvgjsMask1580"><rect width="1920" height="1080" fill="#ffffff"></rect></mask><linearGradient x1="10.94%" y1="-19.44%" x2="89.06%" y2="119.44%" gradientUnits="userSpaceOnUse" id="SvgjsLinearGradient1581"><stop stop-color="rgba(14, 42, 71, 1)" offset="0.32"></stop><stop stop-color="rgba(25, 158, 194, 1)" offset="1"></stop></linearGradient></defs></svg>